<svg viewBox="0 0 32 32" width="512" height="512" xmlns="http://www.w3.org/2000/svg"><g fill="none" fill-rule="evenodd"><path fill="#D3EAED" d="M0 0h32v32H0z"/><path d="M25.23 18.15c0 4.17-4.813 7.554-9.4 7.554-4.585 0-9.434-3.374-9.434-7.543l1.177-7.224 8.85-5.715 7.63 4.903 1.177 8.025z" fill="#D5C8B3"/><path d="M22.711 21.533c0 3.803-3.221 6.886-7.023 6.886-3.804 0-7.024-3.083-7.024-6.886V10.586c0-3.803 3.22-6.886 7.024-6.886 3.802 0 7.023 3.083 7.023 6.886v10.947z" fill="#FED5AF"/><path d="M14.577 14.294a.942.942 0 11-1.885 0 .942.942 0 011.885 0" fill="#00030C"/><path d="M13.753 13.97a.265.265 0 11-.53 0 .265.265 0 01.53 0" fill="#FFF"/><path d="M19.109 14.294a.942.942 0 11-1.885 0 .942.942 0 011.885 0" fill="#00030C"/><path d="M18.285 13.97a.265.265 0 11-.53 0 .265.265 0 01.53 0" fill="#FFF"/><path d="M16.637 15.982a.75.75 0 11-1.5 0l.258-1.588c0-.155.125-.346.28-.346h.376c.155 0 .282.19.282.346l.304 1.588z" fill="#F5A268"/><path d="M17.58 21.05s-1.105 1.657-2.947.09" fill="#FFF"/><path d="M7.584 11.14v.4c1.08.334 1.89.518 2.907.518 4.603 0 8.34-3.732 8.34-8.334 0-.1 0-.201-.004-.3a8.293 8.293 0 00-2.969-.548c-4.564 0-8.274 3.7-8.274 8.263" fill="#554E42"/><path d="M24.136 10.23A8.269 8.269 0 0017.75 3.08a9.616 9.616 0 006.385 7.148" fill="#554E42"/></g></svg>